<svg id="Calque_1" data-name="Calque 1" xmlns="http://www.w3.org/2000/svg" viewBox="0 0 130.56 130.4"><defs><style>.cls-1{fill:gray;}</style></defs><title>redbubble_grey</title><path class="cls-1" d="M131.91,63.48c0,39.31-29.26,68-64.37,68.35C49.71,132,34.22,126,21.37,113.62a63,63,0,0,1-20-45.07C.87,50,7.21,33.89,20.29,20.72S49.44,1.08,68,1.45A63.13,63.13,0,0,1,113.27,21C125.65,33.65,131.7,49,131.91,63.48Zm-76.09,8,.43-.19a12.39,12.39,0,0,0,4.55-3.36,14.23,14.23,0,0,0,3.25-8.06,17.62,17.62,0,0,0-.52-6.42,13,13,0,0,0-6.65-8.35,17.65,17.65,0,0,0-8.13-2c-6.16-.07-12.32,0-18.48,0A1.39,1.39,0,0,0,29,43.9a3.42,3.42,0,0,0-.28,1.34q0,21,0,41.92v1a1.86,1.86,0,0,0,2,2q17.91,0,35.83,0a1.66,1.66,0,0,0,1.65-1,1.7,1.7,0,0,0-.27-1.86c-1.57-2-3.13-4.09-4.69-6.13q-2.83-3.7-5.66-7.4Zm46.7-7.22c0-.06.1-.15.17-.24a10.72,10.72,0,0,0,2.39-5.9,17,17,0,0,0-.43-6.43A10.55,10.55,0,0,0,99.58,45a15.94,15.94,0,0,0-7.77-1.94C86,43,80.25,43,74.47,43a1.67,1.67,0,0,0-1.77,1.79q0,21.75,0,43.5a2.08,2.08,0,0,0,0,.43,1.7,1.7,0,0,0,1.77,1.35H91a34,34,0,0,0,5.14-.3,20.39,20.39,0,0,0,5.43-1.51,13.24,13.24,0,0,0,4.71-3.39,12.3,12.3,0,0,0,3-7.11,17,17,0,0,0-.72-6.91,10.22,10.22,0,0,0-3.8-5.32C104,65.09,103.26,64.71,102.52,64.27Z" transform="translate(-1.36 -1.43)"/></svg>