<?xml version="1.0" encoding="utf-8"?>
<!-- Generator: Adobe Illustrator 22.0.1, SVG Export Plug-In . SVG Version: 6.00 Build 0)  -->
<svg version="1.1" id="Calque_1" xmlns="http://www.w3.org/2000/svg" xmlns:xlink="http://www.w3.org/1999/xlink" x="0px" y="0px"
	 viewBox="0 0 50 50" style="enable-background:new 0 0 50 50;" xml:space="preserve">
<style type="text/css">
	.st0{enable-background:new    ;}
	.st1{fill:#CC1572;}
</style>
<g class="st0">
	<path class="st1" d="M41.6,39.4l-8.3,5.8l-4.4-5.8c-0.1-2.8-1.4-6.2-4-10.1c-2.3,3.7-3.5,7.1-3.5,10.1l-4.1,5.8l-8.4-5.8l4.1-5.9
		c2.7-0.8,5.6-3,8.8-6.7c-0.3,0-1.1-0.2-2.3-0.4c-1.8-0.4-3.4-0.5-4.8-0.5c-1.4,0-2.7,0.2-3.9,0.5l-7-2.3L7,14.1l7,2.3
		c1.3,2.1,4.2,4.2,8.7,6.3c-0.5-5.1-1.5-8.8-3-11.1V4.5h10.2v7.2c-2,3-3,6.7-3,11.1c5.2-2.5,8.2-4.6,9.2-6.3l6.7-2.3l3.3,9.8
		l-6.5,2.3c-1.5-0.4-3-0.6-4.4-0.6c-1.6,0-3.9,0.4-7,1.1c2.8,3.4,5.8,5.7,9,6.7L41.6,39.4z"/>
</g>
</svg>
