<?xml version="1.0" encoding="utf-8"?>
<!-- Generator: Adobe Illustrator 22.0.0, SVG Export Plug-In . SVG Version: 6.00 Build 0)  -->
<svg version="1.1" xmlns="http://www.w3.org/2000/svg" xmlns:xlink="http://www.w3.org/1999/xlink" x="0px" y="0px"
	 viewBox="0 0 841.9 595.3" style="enable-background:new 0 0 841.9 595.3;" xml:space="preserve">
<style type="text/css">
	.st0{display:none;}
	.st1{fill:#41B783;}
	.st2{fill:#35495E;}
</style>
<g id="Calque_1" class="st0">
</g>
<g id="Calque_2">
	<path class="st1" d="M622,126.3c-7.7,11.1-13.9,23-20.6,34.7C542.5,262.5,483.7,364,424.8,465.6c-2.8,4.8-2.8,4.8-5.6,0
		C354.4,353.8,289.6,242,224.8,130.3c-0.8-1.4-1.3-3.1-2.8-4c0-0.3,0-0.7,0-1c26.7,0.1,53.4,0.1,80.1,0.2c3.3,5.8,6.6,11.6,9.9,17.3
		c18.7,32.2,37.4,64.5,56.1,96.7c17.3,29.8,34.5,59.6,51.7,89.4c1.6,2.8,2.7,2.8,4.4,0c6.1-10.7,12.3-21.3,18.5-32
		c20.2-34.8,40.4-69.6,60.5-104.5c12.9-22.3,25.8-44.6,38.7-67c26.7-0.1,53.4-0.1,80.1-0.2C622,125.6,622,125.9,622,126.3z"/>
	<path class="st2" d="M302.1,125.5c23.6-0.1,47.3-0.1,70.9-0.3c3,0,3.9,1.7,5.1,3.8c13.6,23.4,27.2,46.8,40.8,70.3
		c0.9,1.5,1.8,3,2.8,4.6c2-1.2,2.5-3.1,3.4-4.6c13.5-23.3,27.1-46.5,40.5-69.8c1.7-2.9,3.4-4.2,6.9-4.2c23.1,0.2,46.3,0.2,69.4,0.3
		c-12.9,22.3-25.8,44.7-38.7,67c-20.2,34.8-40.4,69.6-60.5,104.5c-6.2,10.6-12.4,21.3-18.5,32c-1.6,2.8-2.7,2.8-4.4,0
		c-17.2-29.8-34.5-59.6-51.7-89.4c-18.7-32.2-37.4-64.5-56.1-96.7C308.7,137,305.4,131.2,302.1,125.5z"/>
</g>
</svg>
